<svg width="1080" height="1080" viewBox="0 0 1080 1080" fill="none" xmlns="http://www.w3.org/2000/svg">
<path d="M348.839 968.458C348.839 968.458 348.203 1011.68 336.615 1011.05C325.021 1010.21 245.146 983.641 236.084 968.458C227.021 953.484 339.776 932.193 345.042 934.719C350.313 937.25 348.839 968.458 348.839 968.458Z" fill="#FF6F27"/>
<path d="M973.708 714.375C971.177 845.109 801.734 879.057 801.734 879.057C801.734 879.057 774.974 869.146 714.276 872.521C706.479 872.943 698.26 873.573 689.406 874.417C611.219 882.219 334.713 866.615 334.713 866.615C334.713 866.615 333.453 852.276 330.713 833.932C329.026 822.333 326.708 809.052 323.547 797.031C239.458 760.974 149.255 835.62 149.255 835.62C149.255 835.62 103.734 799.563 130.286 691.182C156.422 584.49 308.37 522.078 391.828 507.104C393.094 506.896 394.359 506.682 395.62 506.474C397.099 506.266 398.573 506.052 399.838 505.63C402.156 505.208 404.474 504.786 406.583 504.578C411.427 503.734 415.854 503.099 419.859 502.255C421.963 501.833 424.073 501.625 425.969 501.203C425.969 501.203 426.182 501.203 426.391 501.203C437.771 499.307 446.833 497.62 454.422 496.141C482.031 491.083 485.401 490.026 485.401 490.026C485.401 490.026 536.614 490.026 584.031 483.911C585.505 483.703 586.984 483.49 588.458 483.281C594.989 483.281 601.526 483.703 608.271 484.125C611.01 484.125 613.536 484.547 616.276 484.755C617.12 484.755 617.963 484.755 618.594 484.969C621.125 485.177 623.864 485.391 626.391 485.813C631.031 486.234 635.875 486.865 640.724 487.495C790.989 507.318 975.818 597.984 973.5 714.589L973.708 714.375Z" fill="#F68829"/>
<path d="M564.01 572.474C524.391 612.958 471.281 599.042 455.688 561.297C445.151 535.573 450.208 509.849 454.422 496.141C482.031 491.083 485.401 490.026 485.401 490.026C485.401 490.026 536.615 490.026 584.031 483.911C588.458 504.786 591.62 544.219 563.802 572.682L564.01 572.474Z" fill="#FFEEC8"/>
<path d="M733.453 745.583C719.333 844.266 714.062 872.307 714.062 872.307C706.265 872.729 698.047 873.359 689.198 874.203C611.01 882.005 334.505 866.406 334.505 866.406C334.505 866.406 333.239 852.068 330.5 833.719L334.927 800.193C334.927 800.193 336.193 767.51 320.807 746.849C339.984 669.042 380.239 542.109 391.62 506.896C392.88 506.682 394.146 506.474 395.411 506.266C396.885 506.052 398.364 505.844 399.625 505.422C401.943 505 404.265 504.578 406.37 504.365C411.219 503.521 415.646 502.891 419.646 502.047C421.755 501.625 423.651 501.411 425.76 500.99C425.76 500.99 425.969 500.99 426.182 500.99C420.281 548.01 428.078 666.932 505.635 657.234C584.875 647.323 599.838 526.927 608.057 483.911C610.797 483.911 613.328 484.333 616.068 484.547C616.911 484.547 617.75 484.547 618.385 484.755C620.911 484.969 623.651 485.177 626.182 485.599C630.818 486.021 635.667 486.656 640.515 487.286C635.453 527.135 620.489 699.62 733.031 745.583H733.453Z" fill="#FFEEC8"/>
<path d="M458.427 485.813L463.063 545.063C463.063 545.063 491.094 625.396 568.438 539.792C580.026 527.135 569.49 478.432 567.594 471.052C563.167 453.547 458.427 485.813 458.427 485.813Z" fill="#FFA781"/>
<path d="M324.391 231.943C324.391 231.943 220.068 268.63 294.042 337.578C277.391 393.667 321.651 463.25 372.651 442.583C423.443 421.922 624.495 414.12 624.495 414.12C624.495 414.12 716.594 438.37 708.797 350.443C769.911 326.406 743.568 241.427 693.411 227.089C643.255 212.755 433.349 174.167 433.349 174.167L337.875 203.266L324.391 231.729V231.943Z" fill="#402E24"/>
<path d="M346.516 300.469C346.516 300.469 431.87 289.292 431.24 234.26C548.839 293.302 587.193 257.245 587.193 257.245C587.193 257.245 585.719 279.385 642.198 316.917C666.646 264.833 713.224 294.141 701.844 335.047C690.458 375.745 649.156 382.281 649.156 382.281C649.156 382.281 637.984 467.255 565.906 490.026C493.833 512.802 421.964 493.193 389.089 460.083C356.422 426.771 346.729 300.469 346.729 300.469H346.516Z" fill="#FFA781"/>
<path d="M525.021 354.026C531.979 352.974 536.823 346.224 535.771 339.266L533.662 325.771C532.609 318.812 525.865 313.964 518.912 315.016C511.958 316.073 507.109 322.818 508.162 329.776L510.271 343.271C511.323 350.229 518.068 355.078 525.021 354.026Z" fill="#402E24"/>
<path d="M422.599 370.052C429.552 368.995 434.401 362.25 433.349 355.292L431.24 341.797C430.187 334.839 423.443 329.99 416.484 331.042C409.531 332.099 404.682 338.844 405.74 345.802L407.844 359.297C408.901 366.255 415.646 371.104 422.599 370.052Z" fill="#402E24"/>
<path d="M427.448 401.469C427.448 401.469 439.88 459.453 491.302 451.229C542.724 443.219 530.078 385.234 530.078 385.234L427.656 401.469H427.448Z" fill="#402E24"/>
<path d="M475.495 384.177C469.807 384.177 463.484 381.646 456.74 376.375C455.474 375.531 455.266 373.844 456.318 372.583C457.162 371.318 458.849 371.104 460.109 372.161C467.698 377.854 474.234 379.964 479.292 378.276C485.823 376.167 488.354 368.365 488.354 368.365C488.776 366.885 490.25 366.255 491.724 366.677C493.198 367.099 493.833 368.573 493.412 370.052C493.412 370.474 490.037 380.594 480.766 383.547C479.078 384.177 477.391 384.391 475.495 384.391V384.177Z" fill="#402E24"/>
<path d="M438.615 399.781C442.406 407.37 452.948 417.917 483.714 413.068C517.86 407.583 522.073 393.667 522.073 386.5L438.615 399.573V399.781Z" fill="#FFEEC8"/>
<path d="M325.443 255.766C325.443 255.766 459.057 151.182 649.786 262.938C688.354 255.979 703.104 248.385 709.005 202C715.12 155.609 712.38 49.1302 693.62 40.4844C674.656 31.8385 668.755 41.3281 621.547 24.25C574.338 6.95832 444.307 -1.05332e-05 383.609 60.3021C267.698 175.432 313.219 237 325.651 255.979L325.443 255.766Z" fill="#F68829"/>
<path d="M405.526 311.646C405.318 311.646 404.896 311.646 404.682 311.646C403.209 311.224 402.578 309.536 403 308.271C407.636 294.984 421.334 293.51 427.865 294.776C429.344 294.984 430.396 296.464 429.974 297.938C429.766 299.417 428.287 300.469 426.813 300.047C426.182 300.047 412.063 297.938 407.844 310.167C407.422 311.224 406.37 311.854 405.318 311.854L405.526 311.646Z" fill="#402E24"/>
<path d="M571.807 900.771L509.849 908.573L505.635 894.026L478.87 899.089L485.823 941.255C485.823 941.255 342.302 983.427 278.026 970.354C213.536 957.495 204.26 916.167 204.26 916.167L265.167 869.776L334.713 866.406L469.807 848.057L562.536 835.406L572.021 900.771H571.807Z" fill="#402E24"/>
<path d="M485.823 941.255C485.823 941.255 342.302 983.427 278.026 970.354C213.536 957.495 204.26 916.167 204.26 916.167L265.167 869.776L334.713 866.401L469.807 848.057L479.078 899.089L486.036 941.255H485.823Z" fill="#50903A"/>
<path d="M522.073 299.625C520.807 299.625 519.755 298.781 519.542 297.307C518.911 293.719 517.646 291.401 515.12 290.135C509.635 287.182 499.734 290.979 496.359 292.458C495.094 293.089 493.411 292.458 492.776 291.193C492.146 289.927 492.776 288.24 494.042 287.604C494.677 287.396 508.583 280.646 517.646 285.286C521.651 287.396 523.969 290.979 524.812 296.25C525.021 297.729 523.969 298.995 522.703 299.203C522.703 299.203 522.495 299.203 522.281 299.203L522.073 299.625Z" fill="#402E24"/>
<path d="M261.167 767.51C172.229 788.599 142.932 818.75 141.88 842.156C140.828 865.563 161.693 934.51 175.812 940.625C189.932 946.74 203.208 946.109 214.38 937.672C236.719 948.427 263.062 933.667 263.062 933.667C263.062 933.667 288.984 930.083 299.099 915.953C307.739 902.25 311.323 880.531 311.323 880.531C311.323 880.531 314.271 918.698 339.776 921.646C365.062 924.599 370.12 915.531 378.338 888.755C386.562 861.974 381.078 804.203 362.114 786.281C351.786 776.37 309.427 756.547 261.167 767.932V767.51Z" fill="#FFA781"/>
<path d="M432.292 1004.72C432.292 1004.72 454.844 1068.61 481.818 1065.88C508.797 1063.34 492.776 1032.56 492.776 1032.56C492.776 1032.56 573.917 1080 585.505 1058.07C597.099 1036.14 532.609 997.557 503.104 996.922C553.896 987.224 535.349 959.604 492.776 956.859C450.208 954.328 442.62 956.859 442.62 956.859L432.292 1004.52V1004.72Z" fill="#50903A"/>
<path d="M411.005 904.146C411.005 904.146 344.411 944.63 360.427 1023.28C422.599 1055.12 453.578 999.667 454.422 969.932C455.265 940.203 450.208 909.839 411.005 904.146Z" fill="#FF6F27"/>
<path d="M748.63 729.771C748.63 729.771 703.104 771.099 687.719 772.786C672.339 774.469 572.651 787.333 558.953 804.625C545.255 821.911 552.844 922.281 571.807 949.901C590.776 977.313 608.688 962.344 608.688 962.344C608.688 962.344 641.146 983.427 653.578 966.349C679.078 980.052 702.261 956.859 702.261 956.859C702.261 956.859 723.761 978.37 747.787 965.505C771.813 952.646 782.136 904.568 777.078 896.766C796.891 885.594 801.735 879.057 801.735 879.057C801.735 879.057 837.141 786.698 748.839 729.979L748.63 729.771Z" fill="#FFA781"/>
<path d="M506.474 505C483.714 505 466.224 499.729 465.172 499.307C463.693 498.885 463.063 497.406 463.485 495.932C463.906 494.453 465.38 493.823 466.854 494.245C467.276 494.245 511.323 507.948 550.943 491.505C552.208 490.87 553.896 491.505 554.526 492.979C555.162 494.245 554.526 495.932 553.052 496.562C537.245 503.099 521.021 505.208 506.688 505.208L506.474 505Z" fill="#402E24"/>
<path d="M751.37 723.443C750.948 723.443 750.526 723.443 750.104 723.021C748.838 722.177 748.417 720.703 749.26 719.437C750.948 716.698 790.776 650.911 839.25 626.87C840.515 626.24 842.203 626.87 842.833 628.135C843.463 629.401 842.833 631.089 841.568 631.724C794.573 654.917 754.109 721.547 753.687 722.177C753.265 723.021 752.208 723.443 751.37 723.443Z" fill="#402E24"/>
<path d="M790.99 671.365C789.932 671.365 788.88 670.729 788.458 669.464C783.823 655.339 789.516 620.333 789.724 618.859C789.932 617.385 791.411 616.328 792.885 616.75C794.359 616.964 795.417 618.438 794.995 619.917C794.995 620.333 789.302 655.125 793.516 667.99C793.937 669.464 793.307 670.943 791.833 671.365C791.62 671.365 791.198 671.365 790.99 671.365Z" fill="#402E24"/>
<path d="M699.735 950.323C698.891 950.323 698.047 949.901 697.417 949.057C676.761 915.745 689.62 867.667 690.25 865.771C690.672 864.297 692.146 863.453 693.62 863.875C695.099 864.297 695.943 865.771 695.521 867.245C695.521 867.667 682.662 915.109 702.052 946.318C702.896 947.583 702.474 949.271 701.209 949.901C700.787 950.115 700.365 950.323 699.735 950.323Z" fill="#402E24"/>
<path d="M650.838 958.547C649.995 958.547 649.364 958.125 648.734 957.495C633.557 939.359 637.141 893.813 637.354 891.917C637.354 890.443 638.828 889.385 640.302 889.385C641.776 889.385 642.833 890.865 642.833 892.339C642.833 892.76 639.25 937.672 652.948 954.12C653.792 955.172 653.792 956.859 652.526 957.917C652.104 958.339 651.474 958.547 650.838 958.547Z" fill="#402E24"/>
<path d="M609.109 958.547C608.057 958.547 607.213 957.917 606.791 957.073C593.729 930.927 599.416 884.75 599.63 882.849C599.63 881.375 601.104 880.318 602.578 880.531C604.052 880.531 605.109 882.005 604.896 883.484C604.896 883.906 599.208 930.083 611.432 954.75C612.062 956.016 611.432 957.703 610.166 958.339C609.745 958.339 609.323 958.547 608.901 958.547H609.109Z" fill="#402E24"/>
<path d="M741.672 918.698C741.25 918.698 740.828 918.698 740.407 918.484C739.146 917.854 738.511 916.167 739.354 914.901C746.308 901.406 746.099 873.995 746.099 873.781C746.099 872.307 747.365 871.042 748.839 871.042C750.313 871.042 751.578 872.307 751.578 873.781C751.578 875.047 751.578 902.672 744.203 917.432C743.782 918.276 742.729 918.906 741.886 918.906L741.672 918.698Z" fill="#402E24"/>
<path d="M771.599 896.135C770.969 896.135 770.333 895.922 769.703 895.292C760.641 886.224 750.526 893.182 750.104 893.391C748.839 894.234 747.151 894.026 746.307 892.76C745.469 891.495 745.677 889.807 746.943 888.964C751.786 885.594 763.589 881.583 773.286 891.495C774.339 892.552 774.339 894.234 773.286 895.292C772.229 896.344 772.021 896.135 771.391 896.135H771.599Z" fill="#402E24"/>
<path d="M207.422 931.557C206.578 931.557 205.948 931.135 205.318 930.505C197.938 921.438 195.412 892.76 194.99 889.385C194.99 887.911 196.042 886.646 197.516 886.438C198.995 886.438 200.255 887.49 200.469 888.964C201.099 897.401 204.052 920.594 209.531 927.13C210.375 928.182 210.375 929.87 209.11 930.927C208.688 931.349 208.057 931.557 207.422 931.557Z" fill="#402E24"/>
<path d="M261.583 925.656C260.323 925.656 259.266 924.813 259.057 923.547C256.74 912.583 252.521 877.578 252.312 875.891C252.312 874.417 253.156 873.151 254.63 872.943C255.896 872.943 257.37 873.781 257.583 875.26C257.583 875.682 262.005 911.526 264.115 922.281C264.323 923.755 263.484 925.234 262.005 925.443C262.005 925.443 261.583 925.443 261.375 925.443L261.583 925.656Z" fill="#402E24"/>
<path d="M315.958 738.839C314.906 738.839 313.849 738.203 313.432 737.151C313.219 736.307 281.818 655.339 257.37 641.844C256.104 641.208 255.682 639.526 256.318 638.26C256.948 636.995 258.636 636.573 259.901 637.203C286.245 651.755 317.224 731.88 318.49 735.25C318.912 736.729 318.49 738.203 317.011 738.625C316.802 738.625 316.38 738.625 315.958 738.625V738.839Z" fill="#402E24"/>
<path d="M283.083 670.521C282.87 670.521 282.661 670.521 282.448 670.521C280.974 670.099 280.13 668.62 280.552 667.354L289.828 630.245C290.25 628.771 291.724 627.927 292.989 628.349C294.463 628.771 295.307 630.245 294.885 631.51L285.609 668.62C285.401 669.885 284.135 670.729 283.083 670.729V670.521Z" fill="#402E24"/>
<path d="M311.531 873.359C310.057 873.359 308.792 872.099 308.792 870.62V837.094C308.792 835.62 310.057 834.354 311.531 834.354C313.01 834.354 314.271 835.62 314.271 837.094V870.62C314.271 872.099 313.01 873.359 311.531 873.359Z" fill="#402E24"/>
</svg>
