<svg width="1080" height="1080" viewBox="0 0 1080 1080" fill="none" xmlns="http://www.w3.org/2000/svg">
<path d="M881.589 621.172C891.057 600.969 820.365 450.724 820.365 450.724L998.151 395.172C998.151 395.172 1052.86 475.344 1066.54 609.177C1080 743.005 1058.54 824.021 928.297 826.339C838.458 781.938 881.38 620.958 881.38 620.958L881.589 621.172Z" fill="#FFA781"/>
<path d="M938.818 830.755C924.724 833.703 906.839 835.172 887.901 835.807C831.516 837.49 766.078 830.755 766.078 830.755L775.547 862.948C775.547 862.948 512.333 943.964 453.417 945.229C424.385 945.859 355.161 913.661 280.047 874.313C203.458 834.12 120.771 786.568 67.75 758.37C75.5365 745.323 88.5781 727.224 104.781 706.813C157.802 639.896 244.911 547.307 294.146 521.005C358.526 486.495 419.125 494.703 419.125 494.703C419.125 494.703 619.219 493.443 652.672 505.432C675.818 513.641 776.807 566.037 836.562 597.391C863.073 611.281 881.38 620.958 881.38 620.958C881.38 620.958 883.693 759.208 938.609 830.547L938.818 830.755Z" fill="#FFEEC8"/>
<path d="M312.24 854.115C301.297 861.687 290.776 868.213 280.255 874.312C203.672 834.12 120.985 786.568 67.9585 758.37C75.745 745.323 88.7918 727.224 104.99 706.812C156.75 701.552 267.214 708.917 312.24 853.901V854.115Z" fill="#EF3632"/>
<path d="M453.417 458.297C453.417 458.297 414.495 474.5 405.656 489.443C436.589 555.516 472.354 602.651 481.401 609.177L524.323 575.719L557.781 603.073C557.781 603.073 596.917 506.068 595.651 493.443C594.177 481.026 543.052 459.984 543.052 459.984L453.839 458.089L453.417 458.297Z" fill="#EF3632"/>
<path d="M453.417 458.297V481.234C453.417 481.234 491.714 515.536 522.854 565.406C538.63 529.635 560.516 491.547 560.516 491.547V462.927L453.208 458.089L453.417 458.297Z" fill="#FFA781"/>
<path d="M369.255 348.667C369.255 348.667 333.49 293.536 346.537 252.922C292.88 236.297 348.849 204.104 348.849 204.104C348.849 204.104 350.745 117.828 442.901 133.401C475.089 83.3177 560.724 73.0052 562.198 128.979C628.896 58.276 715.37 147.286 680.021 213.573C707.375 223.042 668.031 245.766 668.031 245.766C668.031 245.766 676.448 300.901 646.568 313.312C593.125 330.99 369.047 348.667 369.047 348.667H369.255Z" fill="#402E24"/>
<path d="M287.833 812.656H805.844C813.839 812.656 821.203 817.286 824.573 824.651L877.172 941.438C883.271 955.12 873.385 970.479 858.443 970.479H236.495C221.766 970.479 211.667 955.328 217.766 941.651L269.104 824.865C272.474 817.5 279.838 812.656 287.833 812.656Z" fill="#402E24"/>
<path d="M728.417 873.682C728.417 874.245 728.344 874.812 728.203 875.375C728.062 875.938 727.854 876.505 727.573 877.062C727.292 877.625 726.937 878.188 726.515 878.745C726.094 879.302 725.604 879.859 725.042 880.417C724.484 880.969 723.854 881.521 723.156 882.068C722.458 882.615 721.693 883.161 720.859 883.698C720.026 884.24 719.125 884.776 718.156 885.307C717.193 885.839 716.156 886.365 715.057 886.891C713.958 887.411 712.797 887.927 711.568 888.438C710.338 888.948 709.052 889.453 707.698 889.948C706.344 890.448 704.927 890.938 703.453 891.422C701.974 891.906 700.437 892.385 698.844 892.854C697.245 893.323 695.594 893.786 693.885 894.24C692.172 894.693 690.406 895.141 688.583 895.573C686.76 896.01 684.885 896.438 682.958 896.859C681.031 897.276 679.052 897.688 677.021 898.083C674.989 898.484 672.911 898.875 670.781 899.25C668.656 899.63 666.479 900 664.26 900.359C662.042 900.719 659.776 901.063 657.469 901.401C655.167 901.74 652.818 902.062 650.427 902.375C648.042 902.688 645.614 902.99 643.151 903.281C640.687 903.573 638.193 903.849 635.656 904.12C633.125 904.385 630.562 904.635 627.963 904.88C625.37 905.12 622.745 905.349 620.094 905.568C617.437 905.781 614.76 905.984 612.057 906.177C609.354 906.365 606.625 906.542 603.88 906.708C601.13 906.87 598.364 907.021 595.578 907.156C592.792 907.297 589.989 907.417 587.172 907.531C584.359 907.641 581.526 907.734 578.687 907.818C575.849 907.901 573 907.969 570.14 908.026C567.281 908.083 564.417 908.125 561.552 908.151C558.682 908.177 555.812 908.193 552.937 908.193C550.068 908.193 547.198 908.177 544.328 908.151C541.463 908.125 538.599 908.083 535.739 908.026C532.88 907.969 530.031 907.901 527.193 907.818C524.349 907.734 521.521 907.641 518.708 907.531C515.89 907.417 513.088 907.297 510.302 907.156C507.515 907.021 504.75 906.87 502 906.708C499.255 906.542 496.526 906.365 493.823 906.177C491.12 905.984 488.443 905.781 485.786 905.568C483.135 905.349 480.51 905.12 477.911 904.88C475.318 904.635 472.755 904.385 470.219 904.12C467.687 903.849 465.193 903.573 462.729 903.281C460.265 902.99 457.838 902.688 455.448 902.375C453.062 902.062 450.713 901.74 448.406 901.401C446.104 901.063 443.838 900.719 441.62 900.359C439.401 900 437.224 899.63 435.099 899.25C432.969 898.875 430.89 898.484 428.859 898.083C426.828 897.688 424.849 897.276 422.922 896.859C420.989 896.438 419.114 896.01 417.297 895.573C415.474 895.141 413.708 894.693 411.995 894.24C410.286 893.786 408.63 893.323 407.036 892.854C405.443 892.385 403.906 891.906 402.427 891.422C400.953 890.938 399.536 890.448 398.182 889.948C396.828 889.453 395.536 888.948 394.312 888.438C393.083 887.927 391.922 887.411 390.823 886.891C389.724 886.365 388.687 885.839 387.719 885.307C386.755 884.776 385.854 884.24 385.021 883.698C384.187 883.161 383.422 882.615 382.724 882.068C382.026 881.521 381.396 880.969 380.833 880.417C380.276 879.859 379.786 879.302 379.364 878.745C378.943 878.188 378.588 877.625 378.307 877.062C378.026 876.505 377.818 875.938 377.677 875.375C377.536 874.812 377.463 874.245 377.463 873.682C377.463 873.12 377.536 872.552 377.677 871.99C377.818 871.427 378.026 870.859 378.307 870.302C378.588 869.74 378.943 869.177 379.364 868.62C379.786 868.062 380.276 867.505 380.833 866.948C381.396 866.396 382.026 865.844 382.724 865.297C383.422 864.75 384.187 864.203 385.021 863.667C385.854 863.125 386.755 862.589 387.719 862.057C388.687 861.526 389.724 861 390.823 860.474C391.922 859.953 393.083 859.438 394.312 858.927C395.536 858.417 396.828 857.911 398.182 857.417C399.536 856.917 400.953 856.427 402.427 855.943C403.906 855.458 405.443 854.979 407.036 854.51C408.63 854.042 410.286 853.578 411.995 853.125C413.708 852.672 415.474 852.224 417.297 851.792C419.114 851.354 420.989 850.927 422.922 850.505C424.849 850.089 426.828 849.677 428.859 849.281C430.89 848.88 432.969 848.49 435.099 848.109C437.224 847.734 439.401 847.365 441.62 847.005C443.838 846.646 446.104 846.302 448.406 845.964C450.713 845.625 453.062 845.302 455.448 844.99C457.838 844.672 460.265 844.37 462.729 844.083C465.187 843.792 467.687 843.516 470.219 843.245C472.755 842.979 475.318 842.729 477.911 842.484C480.51 842.245 483.135 842.016 485.786 841.797C488.443 841.583 491.12 841.38 493.823 841.188C496.526 841 499.255 840.823 502 840.656C504.75 840.495 507.515 840.344 510.302 840.208C513.088 840.068 515.89 839.948 518.708 839.833C521.521 839.724 524.349 839.63 527.193 839.547C530.031 839.464 532.88 839.396 535.739 839.339C538.599 839.281 541.463 839.24 544.328 839.214C547.198 839.188 550.068 839.172 552.937 839.172C555.812 839.172 558.682 839.188 561.552 839.214C564.417 839.24 567.281 839.281 570.14 839.339C573 839.396 575.849 839.464 578.687 839.547C581.526 839.63 584.359 839.724 587.172 839.833C589.989 839.948 592.792 840.068 595.578 840.208C598.364 840.344 601.13 840.495 603.88 840.656C606.625 840.823 609.354 841 612.057 841.188C614.76 841.38 617.437 841.583 620.094 841.797C622.745 842.016 625.37 842.245 627.963 842.484C630.562 842.729 633.125 842.979 635.656 843.245C638.193 843.516 640.687 843.792 643.151 844.083C645.614 844.37 648.042 844.672 650.427 844.99C652.818 845.302 655.167 845.625 657.469 845.964C659.776 846.302 662.042 846.646 664.26 847.005C666.479 847.365 668.656 847.734 670.781 848.109C672.911 848.49 674.989 848.88 677.021 849.281C679.052 849.677 681.031 850.089 682.958 850.505C684.885 850.927 686.76 851.354 688.583 851.792C690.406 852.224 692.172 852.672 693.885 853.125C695.594 853.578 697.245 854.042 698.844 854.51C700.437 854.979 701.974 855.458 703.453 855.943C704.927 856.427 706.344 856.917 707.698 857.417C709.052 857.911 710.338 858.417 711.568 858.927C712.797 859.438 713.958 859.953 715.057 860.474C716.156 861 717.193 861.526 718.156 862.057C719.125 862.589 720.026 863.125 720.859 863.667C721.693 864.203 722.458 864.75 723.156 865.297C723.854 865.844 724.484 866.396 725.042 866.948C725.604 867.505 726.094 868.057 726.515 868.62C726.937 869.177 727.292 869.74 727.573 870.302C727.854 870.859 728.062 871.427 728.203 871.99C728.344 872.552 728.417 873.12 728.417 873.682Z" fill="#FFEEC8"/>
<path d="M463.938 829.703C463.938 829.703 434.901 797.927 474.037 803.401C487.292 785.932 515.068 793.089 515.068 793.089C515.068 793.089 508.755 749.318 548.099 750.583C587.448 751.844 587.026 797.089 587.026 797.089C587.026 797.089 604.068 781.307 610.802 802.557C638.151 809.292 631.839 850.958 631.839 850.958C631.839 850.958 657.302 854.953 644.255 871.156C607.016 900.615 580.714 882.729 580.714 882.729C580.714 882.729 571.875 898.51 556.516 890.729C528.745 903.354 510.016 881.891 510.016 881.891C510.016 881.891 483.719 895.354 470.25 876.63C456.787 857.901 463.938 829.281 463.938 829.281V829.703Z" fill="#50903A"/>
<path d="M562.828 900.615C530.427 893.464 529.797 847.38 562.406 841.484C564.932 841.068 567.458 840.854 570.193 840.854C609.75 840.646 621.11 865.896 621.953 878.734C622.583 888.411 593.125 907.349 562.62 900.615H562.828Z" fill="#FF6F27"/>
<path d="M651.198 276.281C651.198 276.281 573.979 278.385 567.036 229.562C471.094 298.161 409.234 241.771 409.234 241.771C409.234 241.771 436.588 291.01 391.979 332.042C363.156 289.328 325.917 321.943 341.693 356.453C357.474 390.964 394.927 390.964 394.927 390.964C394.927 390.964 416.807 464.609 483.719 474.714C550.625 484.813 611.641 457.458 636.047 423.37C660.458 389.281 651.198 276.281 651.198 276.281Z" fill="#FFA781"/>
<path d="M500.547 348.667C494.239 348.667 488.979 343.406 488.979 337.094V324.677C488.979 318.365 494.239 313.104 500.547 313.104C506.859 313.104 512.12 318.365 512.12 324.677V337.094C512.12 343.406 506.859 348.667 500.547 348.667Z" fill="#402E24"/>
<path d="M593.547 348.667C587.235 348.667 581.974 343.406 581.974 337.094V324.677C581.974 318.365 587.235 313.104 593.547 313.104C599.86 313.104 605.12 318.365 605.12 324.677V337.094C605.12 343.406 599.86 348.667 593.547 348.667Z" fill="#402E24"/>
<path d="M593.547 377.073C593.547 377.073 590.604 430.104 544.104 430.104C497.604 430.104 500.76 377.073 500.76 377.073H593.76H593.547Z" fill="#402E24"/>
<path d="M546.208 368.87C545.365 368.87 544.734 368.87 543.891 368.87C535.266 367.604 531.057 358.979 530.849 358.766C530.219 357.505 530.849 356.031 531.901 355.401C533.162 354.771 534.636 355.401 535.266 356.453C535.266 356.453 538.63 362.974 544.734 364.026C549.573 364.87 554.833 362.135 560.724 355.823C561.776 354.771 563.25 354.771 564.302 355.823C565.354 356.875 565.354 358.344 564.302 359.396C557.99 365.922 551.886 369.078 546.208 369.078V368.87Z" fill="#402E24"/>
<path d="M583.448 377.073C581.135 384.437 573.141 395.172 545.365 395.172C517.594 395.172 508.547 383.385 507.703 377.073H583.448Z" fill="#FFEEC8"/>
<path d="M475.089 290.38C474.458 290.38 473.828 290.38 473.406 289.745C472.354 288.906 472.354 287.224 473.406 286.172C480.141 278.594 486.875 275.016 493.396 275.859C502.443 277.12 507.073 286.172 507.281 286.589C507.911 287.854 507.281 289.328 506.229 289.958C504.969 290.589 503.495 289.958 502.865 288.906C502.865 288.906 499.078 281.542 492.552 280.911C487.714 280.276 482.667 283.224 476.984 289.536C476.563 290.167 475.724 290.38 475.089 290.38Z" fill="#402E24"/>
<path d="M611.224 293.536C610.172 293.536 609.328 292.901 608.906 292.063C606.172 285.536 602.172 281.75 597.547 280.49C589.552 278.385 580.922 285.12 580.922 285.12C579.87 285.958 578.401 285.75 577.557 284.698C576.714 283.646 576.927 282.172 577.979 281.328C578.401 280.911 588.5 273.125 598.807 275.859C605.12 277.333 609.958 282.172 613.537 290.167C614.167 291.432 613.537 292.901 612.276 293.323C611.854 293.323 611.641 293.323 611.224 293.323V293.536Z" fill="#402E24"/>
<path d="M67.9585 758.37C6.52096 777.307 0.00012207 897.042 58.9116 935.969C117.615 974.896 337.906 995.521 337.906 995.521C337.906 995.521 373.886 1012.15 405.656 1016.98C437.641 1021.82 506.021 1012.98 513.807 1008.99C521.802 1004.99 523.271 983.526 517.802 976.37C532.953 964.375 518.646 945.016 518.646 945.016C518.646 945.016 529.797 923.974 514.224 909.245C527.271 895.776 528.953 873.052 527.271 860.005C525.589 846.958 487.505 831.807 466.886 829.495C446.266 827.177 391.349 843.802 333.49 838.964C218.401 775.411 152.333 732.276 67.7501 758.156L67.9585 758.37Z" fill="#FFA781"/>
<path d="M636.682 451.568C641.729 453.88 690.125 442.094 697.485 436.203C704.849 430.312 708.427 421.896 715.584 416.214C722.735 410.531 786.49 393.068 797.641 391.172C808.792 389.281 801.214 370.552 792.802 372.234C784.386 373.917 717.474 392.646 710.323 393.068C703.167 393.49 691.594 380.229 682.125 382.125C672.662 383.807 626.37 393.276 623.214 398.75C620.271 404.219 622.792 408.641 627 407.589C631.209 406.536 666.136 396.646 669.922 398.536C673.922 400.432 676.026 404.01 671.396 405.901C666.766 408.005 630.787 415.583 627.844 417.896C624.896 420.422 629.735 430.104 633.313 431.156C637.099 432.208 673.714 416.422 677.5 420.214C681.287 424 682.761 426.312 678.974 428.417C674.974 430.521 638.151 439.99 634.995 442.307C631.839 444.62 632.474 449.672 636.469 451.568H636.682Z" fill="#8E8D8B"/>
<path d="M988.052 419.578C944.292 457.458 859.286 458.089 854.239 458.089C777.651 446.516 742.094 402.115 784.172 361.505C767.338 314.365 793.849 292.271 827.724 288.484C864.338 272.49 958.599 256.5 989.739 318.365C995.417 327.411 1019.19 392.646 988.266 419.578H988.052Z" fill="#FFA781"/>
<path d="M824.781 429.469C824.151 429.469 823.729 429.469 823.729 429.469C822.469 429.469 821.417 428.208 821.417 426.948C821.417 425.682 822.677 424.422 823.938 424.63C823.938 424.63 836.563 425.26 842.875 417.896C846.453 413.901 847.505 408.005 846.031 400.432C840.984 374.969 824.573 365.5 815.104 362.344C802.688 357.927 790.276 359.396 785.646 363.396C784.594 364.24 783.12 364.24 782.281 363.187C781.438 362.135 781.438 360.661 782.49 359.818C789.432 354.135 803.74 353.297 816.786 357.714C827.307 361.5 845.609 371.812 850.87 399.589C852.552 408.641 851.292 416.005 846.661 421.266C839.932 429.052 828.359 429.682 824.781 429.682V429.469Z" fill="#402E24"/>
<path d="M871.49 428.839C857.813 428.839 844.771 421.474 843.927 421.052C842.667 420.422 842.245 418.948 843.083 417.688C843.719 416.422 845.188 416.005 846.453 416.844C846.453 416.844 866.859 428.417 881.802 421.896C886.01 420 887.693 414.531 888.531 410.109C891.688 392.224 883.484 361.714 868.125 347.406C867.073 346.562 867.073 344.88 868.125 343.828C868.964 342.776 870.651 342.776 871.703 343.828C888.745 359.609 896.948 392.016 893.583 410.953C892.109 418.948 888.953 424.208 883.906 426.526C879.906 428.208 875.698 428.839 871.703 428.839H871.49Z" fill="#402E24"/>
<path d="M912.307 419.578C901.37 419.578 890.427 416.635 889.583 416.422C888.323 416.005 887.479 414.74 887.901 413.479C888.323 412.214 889.583 411.375 890.849 411.797C900.317 414.531 925.984 418.948 929.562 407.375C936.297 385.911 911.047 334.568 910.625 333.938C909.995 332.672 910.625 331.203 911.677 330.568C912.937 329.938 914.411 330.568 915.041 331.62C916.093 333.724 941.552 385.281 934.192 408.641C931.453 417.266 921.776 419.578 912.099 419.578H912.307Z" fill="#402E24"/>
<path d="M933.771 410.323C932.719 410.323 931.875 410.323 931.875 410.323C930.615 410.323 929.562 409.057 929.562 407.589C929.562 406.323 930.823 405.271 932.297 405.271C933.141 405.271 952.708 406.953 958.177 389.49C964.068 371.182 946.396 332.672 946.182 332.255C945.552 330.99 946.182 329.516 947.448 328.885C948.708 328.255 950.182 328.885 950.812 330.151C951.656 331.833 969.328 370.76 963.016 390.964C957.333 408.641 939.661 410.109 933.771 410.109V410.323Z" fill="#402E24"/>
<path d="M960.489 392.854C959.229 392.854 958.177 392.016 957.963 390.75C957.963 389.49 958.807 388.229 960.068 388.016C960.068 388.016 980.901 385.281 988.052 372.026C994.995 358.766 986.37 338.568 986.161 338.354C985.531 337.094 986.161 335.62 987.422 335.198C988.687 334.568 990.156 335.198 990.578 336.464C991 337.302 1000.47 358.979 992.26 374.339C984.057 389.911 961.542 392.646 960.703 392.854C960.703 392.854 960.703 392.854 960.489 392.854Z" fill="#402E24"/>
<path d="M337.906 806.766C336.646 806.766 335.594 805.714 335.386 804.453C334.964 798.349 327.386 653.995 348.849 608.333C349.479 607.073 350.953 606.651 352.214 607.073C353.479 607.703 353.896 609.177 353.479 610.437C332.438 655.047 340.432 802.771 340.432 804.24C340.432 805.505 339.38 806.766 338.12 806.766H337.906Z" fill="#402E24"/>
<path d="M337.906 703.448C337.698 703.448 337.276 703.448 337.068 703.448C335.802 703.026 335.172 701.552 335.594 700.292C354.74 648.312 369.469 642.214 370.943 641.583C372.203 641.161 373.677 641.792 374.099 643.266C374.516 644.526 373.885 646 372.625 646.422C372.203 646.422 358.318 652.734 340.224 702.182C339.802 703.234 338.958 703.87 337.906 703.87V703.448Z" fill="#402E24"/>
<path d="M547.682 731.224C546.417 731.224 545.365 729.958 545.365 728.698C549.781 662.411 526.01 590.656 525.588 589.818C525.167 588.552 525.797 587.078 527.062 586.661C528.323 586.24 529.797 586.87 530.219 588.13C530.427 588.766 554.625 661.573 550.203 728.906C550.203 730.172 548.943 731.224 547.682 731.224Z" fill="#402E24"/>
<path d="M744.198 806.766C743.146 806.766 742.094 805.927 741.88 804.875L710.323 661.995C710.11 660.729 710.953 659.255 712.214 659.047C713.479 658.839 714.948 659.677 715.162 660.943L746.719 803.823C746.932 805.083 746.089 806.557 744.828 806.766C744.828 806.766 744.406 806.766 744.198 806.766Z" fill="#402E24"/>
<path d="M674.552 870.948C674.552 872.052 674.443 873.146 674.229 874.229C674.016 875.313 673.693 876.37 673.271 877.391C672.849 878.411 672.328 879.38 671.714 880.297C671.104 881.219 670.406 882.068 669.625 882.849C668.844 883.63 667.99 884.328 667.073 884.943C666.151 885.557 665.182 886.078 664.161 886.5C663.141 886.922 662.089 887.24 661.005 887.458C659.922 887.672 658.828 887.781 657.719 887.781C656.615 887.781 655.521 887.672 654.438 887.458C653.354 887.24 652.302 886.922 651.281 886.5C650.26 886.078 649.286 885.557 648.37 884.943C647.448 884.328 646.599 883.63 645.818 882.849C645.036 882.068 644.339 881.219 643.724 880.297C643.109 879.38 642.594 878.411 642.172 877.391C641.745 876.37 641.427 875.313 641.214 874.229C640.995 873.146 640.891 872.052 640.891 870.948C640.891 869.844 640.995 868.745 641.214 867.661C641.427 866.578 641.745 865.526 642.172 864.505C642.594 863.484 643.109 862.516 643.724 861.594C644.339 860.677 645.036 859.823 645.818 859.042C646.599 858.26 647.448 857.563 648.37 856.948C649.286 856.333 650.26 855.818 651.281 855.396C652.302 854.969 653.354 854.651 654.438 854.438C655.521 854.219 656.615 854.115 657.719 854.115C658.828 854.115 659.922 854.219 661.005 854.438C662.089 854.651 663.141 854.969 664.161 855.396C665.182 855.818 666.151 856.333 667.073 856.948C667.99 857.563 668.844 858.26 669.625 859.042C670.406 859.823 671.104 860.677 671.714 861.594C672.328 862.516 672.849 863.484 673.271 864.505C673.693 865.526 674.016 866.578 674.229 867.661C674.443 868.745 674.552 869.844 674.552 870.948Z" fill="#FF6F27"/>
<path d="M938.817 830.755C924.724 833.703 906.838 835.172 887.901 835.807C819.521 761.526 828.989 646 836.776 597.391C863.286 611.281 881.588 620.958 881.588 620.958C881.588 620.958 883.906 759.208 938.817 830.547V830.755Z" fill="#EF3632"/>
<path d="M513.172 479.13C482.037 479.13 461.417 471.344 460.151 470.714C458.891 470.292 458.261 468.823 458.677 467.557C459.099 466.297 460.573 465.667 461.833 466.083C462.255 466.083 502.234 481.448 555.042 469.24C556.307 469.031 557.781 469.661 557.99 471.135C558.198 472.396 557.568 473.87 556.094 474.083C540.318 477.656 525.797 479.13 512.964 479.13H513.172Z" fill="#402E24"/>
<path d="M503.286 909.245C503.286 909.245 502.864 909.245 502.651 909.245L482.453 904.406C481.193 903.984 480.349 902.719 480.562 901.458C480.984 900.198 482.245 899.354 483.505 899.563L503.703 904.406C504.969 904.828 505.807 906.089 505.599 907.349C505.39 908.401 504.338 909.245 503.286 909.245Z" fill="#402E24"/>
<path d="M508.755 947.755H485.823C484.557 947.755 483.297 946.703 483.297 945.229C483.297 943.755 484.349 942.703 485.823 942.703H508.755C510.016 942.703 511.281 943.755 511.281 945.229C511.281 946.703 510.229 947.755 508.755 947.755Z" fill="#402E24"/>
<path d="M487.292 982.261C486.031 982.261 484.979 981.422 484.771 980.156C484.558 978.896 485.401 977.636 486.875 977.422L508.334 973.844C509.599 973.636 510.86 974.479 511.068 975.948C511.282 977.214 510.438 978.474 508.964 978.688L487.505 982.261C487.505 982.261 487.292 982.261 487.084 982.261H487.292Z" fill="#402E24"/>
</svg>
